<svg width="133" height="133" viewBox="0 0 133 133" fill="none" xmlns="http://www.w3.org/2000/svg">
<path d="M62.0244 10.2066L10.1962 61.9933C9.53381 62.6533 9.00825 63.4376 8.64965 64.3012C8.29104 65.1647 8.10645 66.0906 8.10645 67.0257C8.10645 67.9607 8.29104 68.8866 8.64965 69.7502C9.00825 70.6138 9.53381 71.3981 10.1962 72.0581L62.0244 123.844C64.811 126.628 69.3113 126.628 72.0975 123.844L93.8287 102.131C96.3241 99.6375 96.3241 95.5949 93.8287 93.1017C91.3332 90.6086 87.2874 90.6082 84.792 93.1017L68.3179 109.562C67.6243 110.255 66.5718 110.255 65.8783 109.562L24.4895 68.2074C23.796 67.5143 23.796 66.4627 24.4895 65.7697L65.8783 24.4146C66.5718 23.722 67.6243 23.722 68.3179 24.4146L84.792 40.8753C87.2874 43.3689 91.3332 43.3689 93.8287 40.8753C96.3241 38.3817 96.3241 34.3396 93.8287 31.846L72.0998 10.1356C69.3021 7.41126 64.7999 7.43341 62.0244 10.2066Z" fill="url(#paint0_linear_2957_548)"/>
<path d="M62.0244 10.2067L10.1962 61.9933C9.53381 62.6534 9.00825 63.4376 8.64965 64.3012C8.29104 65.1648 8.10645 66.0907 8.10645 67.0257C8.10645 67.9608 8.29104 68.8867 8.64965 69.7503C9.00825 70.6138 9.53381 71.3981 10.1962 72.0581L62.0244 123.844C64.811 126.628 69.3113 126.628 72.0975 123.844L93.8287 102.131C96.3241 99.6375 96.3241 95.5949 93.8287 93.1018C91.3332 90.6087 87.2874 90.6082 84.792 93.1018L68.3179 109.562C67.6243 110.255 66.5718 110.255 65.8783 109.562L24.4895 68.2075C23.796 67.5144 23.796 66.4628 24.4895 65.7697L65.8783 24.4147C67.605 22.9261 70.4229 19.9111 74.5601 19.2051C77.6351 18.6812 80.997 19.8348 84.6457 22.6658L72.1002 10.1352C69.3021 7.41132 64.8004 7.43347 62.0244 10.2067Z" fill="url(#paint1_linear_2957_548)"/>
<path d="M98.8439 88.2832C101.339 90.7768 105.385 90.7768 107.881 88.2832L123.91 72.2668C124.573 71.6068 125.098 70.8225 125.457 69.959C125.815 69.0954 126 68.1695 126 67.2345C126 66.2994 125.815 65.3735 125.457 64.5099C125.098 63.6464 124.573 62.8621 123.91 62.2021L107.741 46.1027C105.24 43.6123 101.193 43.616 98.6958 46.111C96.2004 48.6045 96.2004 52.6467 98.6958 55.1403L109.617 66.0523C110.31 66.7453 110.31 67.7969 109.617 68.49L98.8439 79.2539C96.3485 81.7475 96.3485 85.7901 98.8439 88.2832Z" fill="url(#paint2_linear_2957_548)"/>
<path d="M67.3201 81.2655C75.0487 81.2655 81.314 75.0054 81.314 67.2831C81.314 59.5609 75.0487 53.3008 67.3201 53.3008C59.5914 53.3008 53.3262 59.5609 53.3262 67.2831C53.3262 75.0054 59.5914 81.2655 67.3201 81.2655Z" fill="url(#paint3_linear_2957_548)"/>
<defs>
<linearGradient id="paint0_linear_2957_548" x1="5447.86" y1="8.10948" x2="10373.1" y2="3015.88" gradientUnits="userSpaceOnUse">
<stop stop-color="#4285EB"/>
<stop offset="1" stop-color="#2EC7FF"/>
</linearGradient>
<linearGradient id="paint1_linear_2957_548" x1="6108.49" y1="8.10948" x2="3675.89" y2="12580.6" gradientUnits="userSpaceOnUse">
<stop stop-color="#29CDFF"/>
<stop offset="0.3786" stop-color="#148EFF"/>
<stop offset="1" stop-color="#0A60FF"/>
</linearGradient>
<linearGradient id="paint2_linear_2957_548" x1="2130.12" y1="-551.478" x2="-1035.11" y2="4398.6" gradientUnits="userSpaceOnUse">
<stop stop-color="#FA816E"/>
<stop offset="0.41473" stop-color="#F74A5C"/>
<stop offset="1" stop-color="#F51D2C"/>
</linearGradient>
<linearGradient id="paint3_linear_2957_548" x1="1960.08" y1="-944.788" x2="906.911" y2="3268.06" gradientUnits="userSpaceOnUse">
<stop stop-color="#FA8E7D"/>
<stop offset="0.51264" stop-color="#F74A5C"/>
<stop offset="1" stop-color="#F51D2C"/>
</linearGradient>
</defs>
</svg>
