<svg width="133" height="133" viewBox="0 0 133 133" fill="none" xmlns="http://www.w3.org/2000/svg">
<path d="M128.997 66.2453L100.799 61L97.5722 66.6179L89.6307 80.4431L69.0114 116.34C68.1083 117.912 65.7275 117.265 65.7275 115.449V85.2797V82.0048C65.7275 80.3041 64.535 78.8418 62.8822 78.5155L30.7571 72.1699L2 66.8832C2.04368 68.3852 2.39651 69.8802 3.06832 71.2636L26.8024 112.676C30.1136 118.454 36.2272 122.009 42.8392 122L88.3545 121.939C94.963 121.93 101.065 118.363 104.362 112.581L127.59 71.8527C128.58 70.1207 129.045 68.1778 128.997 66.2453Z" fill="url(#paint0_linear_2957_119)"/>
<path d="M33.9968 67.3566L41.9503 53.4828L62.4468 17.7295C63.3486 16.1566 65.7315 16.8022 65.7315 18.6195V52.0349C65.7315 53.7367 66.9267 55.1998 68.582 55.5239L100.803 61.8342L129 67.0778C128.964 65.6587 128.647 64.2474 128.051 62.9275C127.91 62.617 127.759 62.3099 127.588 62.0111L104.331 21.3386C101.027 15.56 94.9187 12 88.3085 12H42.638C36.017 12 29.9008 15.5712 26.6005 21.3644L3.4098 62.0703C3.35641 62.1635 3.31009 62.2598 3.25973 62.3543C2.36939 64.0252 1.95096 65.8747 2.00457 67.7151L30.7615 73L33.9968 67.3566Z" fill="url(#paint1_linear_2957_119)"/>
<defs>
<linearGradient id="paint0_linear_2957_119" x1="126.344" y1="91.1717" x2="4.28352" y2="92.2961" gradientUnits="userSpaceOnUse">
<stop stop-color="#3585A3"/>
<stop offset="1" stop-color="#00DEAE"/>
</linearGradient>
<linearGradient id="paint1_linear_2957_119" x1="8.15097" y1="43.2513" x2="116.586" y2="40.4387" gradientUnits="userSpaceOnUse">
<stop stop-color="#3585A3"/>
<stop offset="1" stop-color="#00DEAE"/>
</linearGradient>
</defs>
</svg>
