<svg width="133" height="133" viewBox="0 0 133 133" fill="none" xmlns="http://www.w3.org/2000/svg">
<path d="M67 12C59.7773 12 52.6253 13.4226 45.9524 16.1866C39.2795 18.9506 33.2163 23.0019 28.1091 28.1091C17.7946 38.4236 12 52.4131 12 67C12 91.31 27.785 111.935 49.62 119.25C52.37 119.69 53.25 117.985 53.25 116.5V107.205C38.015 110.505 34.77 99.835 34.77 99.835C32.24 93.455 28.665 91.75 28.665 91.75C23.66 88.34 29.05 88.45 29.05 88.45C34.55 88.835 37.465 94.115 37.465 94.115C42.25 102.475 50.335 100 53.47 98.68C53.965 95.105 55.395 92.685 56.935 91.31C44.725 89.935 31.91 85.205 31.91 64.25C31.91 58.145 34 53.25 37.575 49.345C37.025 47.97 35.1 42.25 38.125 34.825C38.125 34.825 42.745 33.34 53.25 40.435C57.595 39.225 62.325 38.62 67 38.62C71.675 38.62 76.405 39.225 80.75 40.435C91.255 33.34 95.875 34.825 95.875 34.825C98.9 42.25 96.975 47.97 96.425 49.345C100 53.25 102.09 58.145 102.09 64.25C102.09 85.26 89.22 89.88 76.955 91.255C78.935 92.96 80.75 96.315 80.75 101.43V116.5C80.75 117.985 81.63 119.745 84.435 119.25C106.27 111.88 122 91.31 122 67C122 59.7773 120.577 52.6253 117.813 45.9524C115.049 39.2795 110.998 33.2163 105.891 28.1091C100.784 23.0019 94.7205 18.9506 88.0476 16.1866C81.3747 13.4226 74.2227 12 67 12Z" fill="black"/>
</svg>
