<svg width="131" height="131" viewBox="0 0 131 131" fill="none" xmlns="http://www.w3.org/2000/svg">
<path d="M45.3605 77.5802C45.1522 77.218 45.0081 76.8225 44.9346 76.4111C45.0161 76.8208 45.1611 77.215 45.3605 77.5802ZM45.8843 78.2263C46.0855 78.4257 46.3121 78.5988 46.5631 78.723C46.3123 78.5948 46.0837 78.4271 45.8861 78.2263H45.8843Z" fill="#083042"/>
<path d="M66.3095 100.407H66.1827C64.9118 100.413 63.6603 100.096 62.545 99.4864L37.005 85.213C35.498 84.3684 34.5709 82.8024 34.5709 81.1104V52.0687C34.5709 50.8244 34.7965 49.6309 35.323 48.5869L15.3529 37.4727C14.5255 39.2127 14.0996 41.1774 14.124 43.2418V91.2069C14.1391 92.5941 14.5208 93.9526 15.2303 95.1447C15.9398 96.3368 16.952 97.3201 18.1641 97.9948L60.2875 121.568C62.1453 122.612 64.227 123.11 66.2842 123.11V123.085C66.334 120.076 66.3095 108.015 66.3095 100.407Z" fill="#083042"/>
<path d="M86.3542 53.856L86.2029 53.6331C86.0778 53.4591 85.9537 53.3096 85.8286 53.1365C85.9537 53.2851 86.0778 53.46 86.2029 53.6331C86.2642 53.6997 86.3153 53.7743 86.3542 53.856ZM65.3311 42.2198C65.4579 42.2198 65.5585 42.1953 65.6845 42.1953C65.5585 42.2198 65.4326 42.2198 65.3311 42.2198Z" fill="#3DDB85"/>
<path d="M35.2973 48.5611C35.8571 47.4007 36.7479 46.432 37.8574 45.7771L61.8912 31.7275C62.9922 31.081 64.2432 30.7339 65.5199 30.7209C66.7966 30.7079 68.0544 31.0293 69.1684 31.6532L93.4541 45.2551C94.544 45.8635 95.4797 46.7139 96.1891 47.7409L115.834 36.1301C114.666 34.4477 113.13 33.0532 111.343 32.0519L71.2247 9.59868C69.3882 8.57262 67.3155 8.0443 65.2119 8.06608C63.1084 8.08785 61.0471 8.65897 59.2323 9.72283L19.5675 32.8966C17.7366 33.966 16.2684 35.5599 15.3525 37.4722L35.2973 48.5611Z" fill="#3DDC84"/>
<path d="M45.4073 54.1569C45.4581 54.0572 45.5079 53.9575 45.5596 53.885C45.5079 53.9838 45.459 54.0572 45.4073 54.1569Z" fill="#3DDB85"/>
<path d="M115.809 36.1299L96.164 47.7408C96.9162 48.8346 97.3684 50.1269 97.392 51.4464V79.0961C97.4073 80.3625 97.0855 81.6102 96.4596 82.7113C95.8338 83.8123 94.9264 84.7271 93.8304 85.3619L69.7949 99.4133C68.7336 100.031 67.5343 100.373 66.3067 100.407C66.333 107.992 66.333 120.052 66.2822 123.061V123.085C68.389 123.062 70.4543 122.497 72.2789 121.443L111.945 98.2443C115.633 96.081 117.891 92.1515 117.841 87.8994V42.2715C117.815 40.0585 117.063 37.9451 115.809 36.1299Z" fill="#4285F4"/>
<path d="M86.8093 76.1386C86.784 76.1894 86.784 76.2392 86.7586 76.2909C86.7867 76.2445 86.804 76.1925 86.8093 76.1386ZM86.5574 54.1829C86.5057 54.0578 86.4305 53.9581 86.3553 53.834C86.4305 53.9581 86.5067 54.0832 86.5574 54.1829ZM68.543 88.2724L84.6498 78.8492L68.543 88.2742V88.2724ZM86.6072 76.7105C86.5565 76.8355 86.4813 76.9597 86.4296 77.0847C86.4813 76.9352 86.5311 76.8101 86.6072 76.7105Z" fill="#4285F4"/>
<path d="M45.3351 54.38C45.1306 54.8631 45.0037 55.3754 44.959 55.898C44.9336 56.0956 44.9336 56.2949 44.9336 56.5197V75.9887C44.9336 76.1373 44.9336 76.2623 44.959 76.4119C45.0097 76.8333 45.1602 77.232 45.3849 77.5809C45.5362 77.8293 45.7112 78.0268 45.8879 78.2262C46.0891 78.4256 46.3138 78.5987 46.5639 78.7246L63.6758 88.2973C64.4203 88.7084 65.2577 88.9221 66.1081 88.9181H66.2848C67.0825 88.891 67.86 88.6601 68.5432 88.2475L84.65 78.8234C84.7506 78.7736 84.8258 78.6984 84.9264 78.6494C85.1022 78.5253 85.278 78.4002 85.4285 78.2507C85.6647 78.0368 85.8819 77.8048 86.0801 77.5547C86.2051 77.3807 86.3311 77.2076 86.4317 77.0327C86.506 76.9094 86.5577 76.7844 86.6066 76.6593C86.6573 76.5369 86.7335 76.3865 86.7833 76.2379C86.8078 76.1871 86.8078 76.1373 86.8332 76.0884C86.9851 75.6055 87.0612 75.102 87.0588 74.5958V56.0711C87.0588 55.724 87.0081 55.4005 86.9338 55.0779C86.8839 54.8531 86.8069 54.6537 86.7326 54.4543L86.5821 54.1571C86.5323 54.032 86.4552 53.9333 86.3809 53.8082L86.2305 53.5853C86.1054 53.4104 85.9795 53.2617 85.8544 53.0877C85.4457 52.6114 84.9522 52.215 84.399 51.9187L68.1173 42.7945C67.8367 42.6358 67.5425 42.5024 67.2382 42.3958C66.83 42.2725 66.4087 42.1977 65.9831 42.1729H65.6568C65.5327 42.1729 65.4321 42.1729 65.307 42.1964C65.0188 42.2223 64.7332 42.2723 64.4533 42.3459C64.4035 42.3704 64.3536 42.3704 64.3029 42.3967C63.9268 42.4964 63.5752 42.6695 63.2235 42.8679L47.1168 52.2929C46.6493 52.5676 46.2398 52.9309 45.9114 53.3623C45.7873 53.5363 45.6613 53.7103 45.5607 53.8843C45.5109 53.984 45.461 54.0583 45.4103 54.158L45.3351 54.38Z" fill="#D6F0FF"/>
<path d="M66.2826 88.9168H66.1068C65.2558 88.9214 64.4178 88.708 63.6726 88.297L46.5626 78.7233C46.3167 78.5866 46.0889 78.4194 45.8848 78.2258C45.6885 78.0342 45.5196 77.8164 45.3827 77.5787C45.1744 77.2165 45.0303 76.821 44.9568 76.4097C44.9305 76.262 44.9305 76.1369 44.9305 75.9883V56.5175C44.9305 56.319 44.9305 56.0961 44.9568 55.8958C45.0048 55.3747 45.1308 54.8627 45.3329 54.3787L40.7155 51.5703L35.2961 48.5615C34.7941 49.6055 34.5439 50.7981 34.5439 52.0424V81.085C34.5587 81.9213 34.7908 82.7394 35.2175 83.4588C35.6441 84.1783 36.2505 84.7744 36.9772 85.1885L62.4945 99.4855C63.6053 100.106 64.8598 100.424 66.1322 100.406H66.2591C66.2591 96.7006 66.2328 94.0652 66.2328 94.0652L66.2826 88.9168Z" fill="#083042"/>
<path d="M66.2826 88.9168H66.1068C65.2558 88.9214 64.4178 88.708 63.6726 88.297L46.5626 78.7233C46.3167 78.5866 46.0889 78.4194 45.8848 78.2258C45.6885 78.0342 45.5196 77.8164 45.3827 77.5787C45.1744 77.2165 45.0303 76.821 44.9568 76.4097C44.9305 76.262 44.9305 76.1369 44.9305 75.9883V56.5175C44.9305 56.319 44.9305 56.0961 44.9568 55.8958C45.0048 55.3747 45.1308 54.8627 45.3329 54.3787L40.7155 51.5703L35.2961 48.5615C34.7941 49.6055 34.5439 50.7981 34.5439 52.0424V81.085C34.5587 81.9213 34.7908 82.7394 35.2175 83.4588C35.6441 84.1783 36.2505 84.7744 36.9772 85.1885L62.4945 99.4855C63.6053 100.106 64.8598 100.424 66.1322 100.406H66.2591C66.2591 96.7006 66.2328 94.0652 66.2328 94.0652L66.2826 88.9168Z" fill="#041619"/>
<path d="M93.4282 45.2555L69.1416 31.6527C68.0277 31.0291 66.77 30.7079 65.4934 30.7211C64.2169 30.7343 62.9661 31.0814 61.8653 31.7279L37.8316 45.7784C36.7163 46.4268 35.8235 47.3977 35.2705 48.5633L40.7171 51.572L45.3326 54.3805L45.4069 54.1576C45.4577 54.057 45.5075 53.9582 45.5574 53.8839C45.6579 53.7099 45.7839 53.5359 45.909 53.3619C46.2352 52.9387 46.6367 52.5916 47.1143 52.2925L63.2202 42.8675C63.5645 42.6742 63.9243 42.5171 64.2995 42.3963C64.3503 42.3718 64.4001 42.3718 64.4499 42.3455C64.7297 42.2694 65.0139 42.2198 65.3027 42.1969C65.4278 42.1969 65.5284 42.1715 65.6544 42.1715H65.9806C66.4056 42.1987 66.8261 42.2721 67.2349 42.3945C67.5442 42.4923 67.8369 42.6255 68.113 42.7941L84.3947 51.92C84.9442 52.2225 85.4372 52.6177 85.8519 53.0882C85.9761 53.2368 86.103 53.4117 86.2271 53.5848L86.3785 53.8078L90.5427 51.0491L96.1877 47.6924C95.46 46.7218 94.532 45.8518 93.4282 45.2555Z" fill="#3DDB85"/>
<path d="M93.4282 45.2555L69.1416 31.6527C68.0277 31.0291 66.77 30.7079 65.4934 30.7211C64.2169 30.7343 62.9661 31.0814 61.8653 31.7279L37.8316 45.7784C36.7163 46.4268 35.8235 47.3977 35.2705 48.5633L40.7171 51.572L45.3326 54.3805L45.4069 54.1576C45.4577 54.057 45.5075 53.9582 45.5574 53.8839C45.6579 53.7099 45.7839 53.5359 45.909 53.3619C46.2352 52.9387 46.6367 52.5916 47.1143 52.2925L63.2202 42.8675C63.5645 42.6742 63.9243 42.5171 64.2995 42.3963C64.3503 42.3718 64.4001 42.3718 64.4499 42.3455C64.7297 42.2694 65.0139 42.2198 65.3027 42.1969C65.4278 42.1969 65.5284 42.1715 65.6544 42.1715H65.9806C66.4056 42.1987 66.8261 42.2721 67.2349 42.3945C67.5442 42.4923 67.8369 42.6255 68.113 42.7941L84.3947 51.92C84.9442 52.2225 85.4372 52.6177 85.8519 53.0882C85.9761 53.2368 86.103 53.4117 86.2271 53.5848L86.3785 53.8078L90.5427 51.0491L96.1877 47.6924C95.46 46.7218 94.532 45.8518 93.4282 45.2555Z" fill="#37BF6E"/>
<path d="M86.3538 53.8583C86.4291 53.9815 86.4798 54.0812 86.5541 54.2063L86.7055 54.5044C86.9162 55.0173 87.0269 55.5658 87.0317 56.1203V74.6459C87.0338 75.1518 86.9573 75.655 86.8052 76.1375C86.7807 76.1865 86.7807 76.2372 86.7553 76.2862C86.7076 76.4317 86.6492 76.5735 86.5804 76.7103C86.5287 76.8326 86.4535 76.9577 86.4037 77.0819C86.304 77.2568 86.178 77.4299 86.0521 77.6048C85.8556 77.8551 85.6376 78.0877 85.4005 78.2999C85.25 78.4494 85.0742 78.5735 84.8984 78.6986C84.7978 78.7475 84.7235 78.8228 84.6229 78.8726L68.5152 88.2958C67.8225 88.6868 67.0506 88.9166 66.2568 88.9682V94.1148C66.2568 94.1148 66.2568 96.7511 66.2822 100.456C67.5116 100.433 68.7139 100.091 69.7704 99.4617L93.8041 85.4112C96.038 84.0944 97.3929 81.7064 97.3675 79.1463V51.4957C97.343 50.1526 96.8917 48.8839 96.1395 47.79L90.4927 51.1477L86.3538 53.8583Z" fill="#4285F4"/>
<path d="M86.3538 53.8583C86.4291 53.9815 86.4798 54.0812 86.5541 54.2063L86.7055 54.5044C86.9162 55.0173 87.0269 55.5658 87.0317 56.1203V74.6459C87.0338 75.1518 86.9573 75.655 86.8052 76.1375C86.7807 76.1865 86.7807 76.2372 86.7553 76.2862C86.7076 76.4317 86.6492 76.5735 86.5804 76.7103C86.5287 76.8326 86.4535 76.9577 86.4037 77.0819C86.304 77.2568 86.178 77.4299 86.0521 77.6048C85.8556 77.8551 85.6376 78.0877 85.4005 78.2999C85.25 78.4494 85.0742 78.5735 84.8984 78.6986C84.7978 78.7475 84.7235 78.8228 84.6229 78.8726L68.5152 88.2958C67.8225 88.6868 67.0506 88.9166 66.2568 88.9682V94.1148C66.2568 94.1148 66.2568 96.7511 66.2822 100.456C67.5116 100.433 68.7139 100.091 69.7704 99.4617L93.8041 85.4112C96.038 84.0944 97.3929 81.7064 97.3675 79.1463V51.4957C97.343 50.1526 96.8917 48.8839 96.1395 47.79L90.4927 51.1477L86.3538 53.8583Z" fill="#3870B2"/>
<path d="M64.3277 42.4209C63.9507 42.5206 63.5991 42.6946 63.2493 42.8921L47.1416 52.3172L63.2475 42.894C63.5823 42.6856 63.9455 42.5268 64.3259 42.4227L64.3277 42.4209Z" fill="#D6F0FF"/>
<path opacity="0.1" d="M64.3277 42.4209C63.9507 42.5206 63.5991 42.6946 63.2493 42.8921L47.1416 52.3172L63.2475 42.894C63.5823 42.6856 63.9455 42.5268 64.3259 42.4227L64.3277 42.4209Z" fill="black"/>
<path d="M86.7059 54.4805C86.7829 54.6835 86.8495 54.8904 86.9053 55.1003C86.8554 54.9019 86.7784 54.7034 86.7041 54.4805H86.7059Z" fill="#D6F0FF"/>
<path opacity="0.1" d="M86.7059 54.4805C86.7829 54.6835 86.8495 54.8904 86.9053 55.1003C86.8554 54.9019 86.7784 54.7034 86.7041 54.4805H86.7059Z" fill="black"/>
</svg>
