<svg width="133" height="133" viewBox="0 0 133 133" fill="none" xmlns="http://www.w3.org/2000/svg">
<g clip-path="url(#clip0_2957_111)">
<path d="M67 5C101.209 5 129 32.7915 129 67C129 101.209 101.209 129 67 129C32.7915 129 5 101.209 5 67C5 32.7915 32.7915 5 67 5ZM67 8.875C52.1665 8.875 38.6854 14.4666 28.4127 23.6078H105.591C94.9736 14.1024 81.2523 8.875 67.0039 8.875H67ZM104.134 27.4828H29.862L66.9961 101.732L104.134 27.4828ZM110.392 28.4127V105.591C119.898 94.9736 125.125 81.2522 125.125 67.0039C125.125 52.1704 119.533 38.6893 110.392 28.4166V28.4127ZM23.6078 28.4127C14.1024 39.0302 8.875 52.7516 8.875 67C8.875 81.8335 14.4666 95.3146 23.6078 105.587V28.4127ZM106.517 31.3578L68.9375 106.517H106.517V31.3578ZM27.4828 31.3578V106.517H65.0625L27.4634 31.3578H27.4828ZM105.587 110.392H28.4089C39.0264 119.898 52.7671 125.125 66.9961 125.125C81.2251 125.125 94.9697 119.898 105.583 110.392H105.587Z" fill="black"/>
</g>
<defs>
<clipPath id="clip0_2957_111">
<rect width="124" height="124" fill="white" transform="matrix(-1 0 0 1 129 5)"/>
</clipPath>
</defs>
</svg>
