<svg width="133" height="133" viewBox="0 0 133 133" fill="none" xmlns="http://www.w3.org/2000/svg">
<path d="M66.9998 78.0436C73.0991 78.0436 78.0436 73.0991 78.0436 66.9998C78.0436 60.9005 73.0991 55.9561 66.9998 55.9561C60.9005 55.9561 55.9561 60.9005 55.9561 66.9998C55.9561 73.0991 60.9005 78.0436 66.9998 78.0436Z" fill="#61DAFB"/>
<path d="M108.947 48.7873C106.816 48.0123 104.588 47.2373 102.263 46.5592C102.844 44.2342 103.328 41.9092 103.716 39.6811C105.75 26.8936 103.522 17.8842 97.3221 14.3967C95.4814 13.3311 93.4471 12.8467 91.1221 12.8467C84.3408 12.8467 75.7189 17.8842 67.0002 26.3123C58.2814 17.8842 49.6596 12.8467 42.8783 12.8467C40.5533 12.8467 38.5189 13.3311 36.6783 14.3967C30.4783 17.9811 28.2502 26.9904 30.2846 39.6811C30.6721 41.9092 31.1564 44.2342 31.7377 46.5592C29.4127 47.2373 27.1846 47.9154 25.0533 48.7873C12.9439 53.4373 6.35645 59.8311 6.35645 66.9998C6.35645 74.1686 13.0408 80.5623 25.0533 85.2123C27.1846 85.9873 29.4127 86.7623 31.7377 87.4404C31.1564 89.7654 30.6721 92.0904 30.2846 94.3186C28.2502 107.106 30.4783 116.115 36.6783 119.603C38.5189 120.669 40.5533 121.153 42.8783 121.153C49.7564 121.153 58.3783 116.115 67.0002 107.687C75.7189 116.115 84.3408 121.153 91.1221 121.153C93.4471 121.153 95.4814 120.669 97.3221 119.603C103.522 116.019 105.75 107.009 103.716 94.3186C103.328 92.0904 102.844 89.7654 102.263 87.4404C104.588 86.7623 106.816 86.0842 108.947 85.2123C121.056 80.5623 127.644 74.1686 127.644 66.9998C127.644 59.8311 121.056 53.4373 108.947 48.7873ZM94.6096 19.2404C98.5814 21.5654 99.9377 28.7342 98.2908 38.9061C98.0002 40.9404 97.5158 43.0717 96.9346 45.2998C91.8971 44.1373 86.5689 43.3623 80.9502 42.8779C77.6564 38.2279 74.2658 34.0623 70.8752 30.2842C78.0439 23.2123 85.3096 18.3686 91.2189 18.3686C92.4783 18.3686 93.6408 18.6592 94.6096 19.2404ZM83.7596 76.6873C82.0158 79.7873 79.9814 82.8873 77.8502 85.9873C74.2658 86.2779 70.6814 86.3748 67.0002 86.3748C63.2221 86.3748 59.6377 86.2779 56.1502 85.9873C54.0189 82.8873 52.0814 79.7873 50.3377 76.6873C48.4971 73.4904 46.7533 70.1967 45.2033 66.9998C46.7533 63.8029 48.4971 60.5092 50.3377 57.3123C52.0814 54.2123 54.1158 51.1123 56.2471 48.0123C59.8314 47.7217 63.4158 47.6248 67.0971 47.6248C70.8752 47.6248 74.4596 47.7217 77.9471 48.0123C80.0783 51.1123 82.0158 54.2123 83.7596 57.3123C85.6002 60.5092 87.3439 63.8029 88.8939 66.9998C87.2471 70.1967 85.6002 73.3936 83.7596 76.6873ZM91.8002 73.4904C93.2533 76.8811 94.4158 80.1748 95.4814 83.4686C92.1877 84.2436 88.7002 84.8248 85.0189 85.3092C86.1814 83.4686 87.4408 81.5311 88.5064 79.4967C89.6689 77.4623 90.7346 75.4279 91.8002 73.4904ZM67.0002 99.7436C64.6752 97.2248 62.4471 94.5123 60.3158 91.7029C62.5439 91.7998 64.7721 91.8967 67.0002 91.8967C69.2283 91.8967 71.4564 91.7998 73.6846 91.7029C71.5533 94.5123 69.3252 97.2248 67.0002 99.7436ZM48.9814 85.2123C45.3002 84.7279 41.8127 84.1467 38.5189 83.3717C39.5846 80.1748 40.7471 76.7842 42.2002 73.3936C43.2658 75.3311 44.3314 77.3654 45.4939 79.3029C46.6564 81.4342 47.8189 83.2748 48.9814 85.2123ZM42.2002 60.5092C40.7471 57.1186 39.5846 53.8248 38.5189 50.5311C41.8127 49.7561 45.3002 49.1748 48.9814 48.6904C47.8189 50.5311 46.5596 52.4686 45.4939 54.5029C44.3314 56.5373 43.2658 58.5717 42.2002 60.5092ZM67.0002 34.2561C69.3252 36.7748 71.5533 39.4873 73.6846 42.2967C71.4564 42.1998 69.2283 42.1029 67.0002 42.1029C64.7721 42.1029 62.5439 42.1998 60.3158 42.2967C62.4471 39.4873 64.6752 36.7748 67.0002 34.2561ZM88.5064 54.5998L85.0189 48.7873C88.7002 49.2717 92.1877 49.8529 95.4814 50.6279C94.4158 53.8248 93.2533 57.2154 91.8002 60.6061C90.7346 58.5717 89.6689 56.5373 88.5064 54.5998ZM35.7096 38.9061C34.0627 28.7342 35.4189 21.5654 39.3908 19.2404C40.3596 18.6592 41.5221 18.3686 42.7814 18.3686C48.5939 18.3686 55.8596 23.1154 63.1252 30.2842C59.7346 33.9654 56.3439 38.2279 53.0502 42.8779C47.4314 43.3623 42.1033 44.2342 37.0658 45.2998C36.4846 43.0717 36.0971 40.9404 35.7096 38.9061ZM11.7814 66.9998C11.7814 62.4467 17.3033 57.6029 26.9908 54.0186C28.9283 53.2436 31.0596 52.5654 33.1908 51.9842C34.7408 56.8279 36.6783 61.9623 39.0033 67.0967C36.6783 72.2311 34.6439 77.2686 33.1908 82.1123C19.8221 78.2373 11.7814 72.4248 11.7814 66.9998ZM39.3908 114.759C35.4189 112.434 34.0627 105.265 35.7096 95.0936C36.0002 93.0592 36.4846 90.9279 37.0658 88.6998C42.1033 89.8623 47.4314 90.6373 53.0502 91.1217C56.3439 95.7717 59.7346 99.9373 63.1252 103.715C55.9564 110.787 48.6908 115.631 42.7814 115.631C41.5221 115.631 40.3596 115.34 39.3908 114.759ZM98.2908 95.0936C99.9377 105.265 98.5814 112.434 94.6096 114.759C93.6408 115.34 92.4783 115.631 91.2189 115.631C85.4064 115.631 78.1408 110.884 70.8752 103.715C74.2658 100.034 77.6564 95.7717 80.9502 91.1217C86.5689 90.6373 91.8971 89.7654 96.9346 88.6998C97.5158 90.9279 97.9033 93.0592 98.2908 95.0936ZM107.01 79.9811C105.072 80.7561 102.941 81.4342 100.81 82.0154C99.2596 77.1717 97.3221 72.0373 94.9971 66.9029C97.3221 61.7686 99.3564 56.7311 100.81 51.8873C114.178 55.7623 122.219 61.5748 122.219 66.9998C122.219 71.5529 116.6 76.3967 107.01 79.9811Z" fill="#61DAFB"/>
</svg>
