<svg width="133" height="133" viewBox="0 0 133 133" fill="none" xmlns="http://www.w3.org/2000/svg">
<g clip-path="url(#clip0_2957_112)">
<path d="M103.034 9.4043C105.449 9.43848 107.465 10.0879 109.299 11.7233C111.125 13.3416 112.23 15.6225 112.367 18.059C112.529 20.54 111.672 22.9799 109.993 24.8139C108.287 26.6857 105.828 29.0034 103.988 30.8434L92.1992 42.6318L56.403 78.4275L32.6847 102.146L25.3964 109.435C22.4149 112.423 20.4646 115.184 15.8736 115.377C13.4213 115.388 11.3083 114.695 9.46042 113.036C7.63667 111.416 6.54074 109.132 6.41911 106.696C6.31042 104.271 7.09336 101.717 8.78499 99.9738C10.7879 97.91 12.8922 95.8438 14.9284 93.8075L26.9752 81.7613L63.5917 45.1456L86.5642 22.1736L93.5679 15.1672C96.6092 12.12 98.3579 9.59705 103.034 9.4043Z" fill="black"/>
<path d="M112.068 60.0889L112.148 60.0833C114.388 59.9498 116.872 60.9396 118.534 62.4295C120.358 64.0503 121.456 66.3356 121.582 68.7725C121.811 73.7569 118.886 75.85 115.709 79.0269L109.106 85.6269L89.1289 105.604L77.5789 117.154L74.2576 120.481C71.7876 122.957 70.2945 124.413 66.5683 124.587C64.257 124.673 62.0008 123.873 60.2591 122.352C58.4158 120.757 57.2824 118.494 57.1086 116.063C56.9204 113.6 57.7366 111.165 59.3713 109.313C60.2476 108.309 61.6844 106.954 62.6645 105.974L68.7783 99.8663L87.6789 80.965L100.538 68.105L104.265 64.3746C106.823 61.8125 108.203 60.3406 112.068 60.0889Z" fill="black"/>
</g>
<defs>
<clipPath id="clip0_2957_112">
<rect width="128" height="128" fill="white" transform="translate(0 3)"/>
</clipPath>
</defs>
</svg>
