<svg width="131" height="131" viewBox="0 0 131 131" fill="none" xmlns="http://www.w3.org/2000/svg">
<path d="M89.7375 100.35C76.9542 107.717 59.4583 108.475 41.7458 100.892C27.8396 94.9234 16.0724 84.875 8 72.075C11.6292 75.0542 15.9083 77.4917 20.4583 79.6583C38.7125 88.1625 56.9125 87.5667 69.75 79.6583C51.4958 65.6292 35.95 47.375 24.4125 32.4792C21.975 30.0417 20.1875 27.0083 18.3458 24.3C63.1958 57.0708 61.2458 65.4125 31.4 18.8292C57.8875 45.5875 82.4792 60.7542 82.4792 60.7542C83.3458 61.2417 83.8333 61.6208 84.4292 61.9458C84.9708 60.5917 85.4583 59.1833 85.8375 57.7208C90.1167 42.2833 85.2417 24.5708 74.5708 10C99.2167 24.8958 113.842 52.8458 107.721 76.3C107.558 76.8958 107.396 77.4917 107.45 78.4125C119.583 93.7417 116.333 109.721 114.763 106.687C108.208 93.7417 95.9125 97.75 89.7375 100.35Z" fill="#FF6E40"/>
</svg>
