<svg width="133" height="133" viewBox="0 0 133 133" fill="none" xmlns="http://www.w3.org/2000/svg">
<g clip-path="url(#clip0_2957_517)">
<path d="M96.75 11H37.25C22.7525 11 11 22.7525 11 37.25V96.75C11 111.247 22.7525 123 37.25 123H96.75C111.247 123 123 111.247 123 96.75V37.25C123 22.7525 111.247 11 96.75 11Z" fill="#007ACC"/>
<path d="M35.7669 67.3711L35.7314 71.9578H50.3089V113.38H60.6204V71.9578H75.1979V67.4599C75.1979 64.9709 75.1449 62.8911 75.0736 62.8377C75.0203 62.7668 66.1491 62.7309 55.3936 62.7489L35.8203 62.8023L35.7669 67.3711ZM101.373 62.6719C104.217 63.3833 106.386 64.6454 108.377 66.7074C109.408 67.8099 110.937 69.8189 111.062 70.2988C111.097 70.441 106.226 73.7122 103.275 75.5431C103.168 75.6144 102.741 75.152 102.261 74.4411C100.821 72.3433 99.3103 71.4363 96.9989 71.2766C93.6035 71.0452 91.4169 72.8232 91.4348 75.7921C91.4348 76.6631 91.5591 77.1785 91.9148 77.8899C92.6611 79.4364 94.048 80.3609 98.4038 82.2452C106.421 85.6944 109.852 87.9699 111.986 91.2052C114.368 94.8141 114.901 100.574 113.284 104.859C111.506 109.516 107.097 112.681 100.892 113.73C98.9725 114.068 94.4212 114.014 92.3593 113.641C87.8613 112.841 83.5948 110.619 80.9637 107.703C79.9325 106.565 77.9235 103.597 78.0482 103.383C78.1011 103.312 78.5636 103.028 79.0789 102.725C79.5768 102.441 81.4616 101.357 83.2391 100.325L86.4569 98.4585L87.1324 99.4543C88.0748 100.894 90.1368 102.868 91.3814 103.525C94.9545 105.41 99.8615 105.143 102.279 102.974C103.31 102.032 103.737 101.054 103.737 99.6144C103.737 98.3163 103.577 97.7476 102.901 96.7698C102.03 95.5255 100.253 94.4764 95.2034 92.2898C89.4258 89.8008 86.9369 88.2543 84.6614 85.8008C83.3459 84.3789 82.1012 82.103 81.5858 80.2008C81.1593 78.6188 81.0525 74.6541 81.3903 73.0542C82.5811 67.4721 86.7947 63.5788 92.8746 62.4229C94.8482 62.0498 99.4345 62.1919 101.373 62.6719Z" fill="white"/>
</g>
<defs>
<clipPath id="clip0_2957_517">
<rect width="112" height="112" fill="white" transform="translate(11 11)"/>
</clipPath>
</defs>
</svg>
